<?xml version="1.0" standalone="no"?>
<!DOCTYPE svg PUBLIC "-//W3C//DTD SVG 20010904//EN"
 "http://www.w3.org/TR/2001/REC-SVG-20010904/DTD/svg10.dtd">
<svg version="1.0" xmlns="http://www.w3.org/2000/svg"
 width="640.000000pt" height="640.000000pt" viewBox="0 0 640.000000 640.000000"
 preserveAspectRatio="xMidYMid meet">
<metadata>
Created by potrace 1.11, written by Peter Selinger 2001-2013
</metadata>
<g transform="translate(0.000000,640.000000) scale(0.100000,-0.100000)"
fill="#000000" stroke="none">
<path d="M2060 5327 c-13 -39 -25 -76 -26 -82 -1 -5 -46 -138 -99 -295 -53
-157 -98 -292 -100 -300 -5 -17 -753 -2257 -762 -2280 -3 -8 -7 -19 -8 -25
-15 -63 -155 -395 -196 -464 -32 -54 -67 -143 -73 -187 -13 -84 42 -151 116
-141 81 11 113 51 159 202 58 193 98 315 113 347 30 66 64 155 85 223 25 77
167 522 210 655 15 47 47 147 72 223 24 75 46 137 50 137 4 0 16 -17 27 -39
11 -21 62 -112 113 -202 51 -90 101 -180 112 -199 10 -19 27 -48 37 -65 9 -16
31 -55 47 -85 17 -30 39 -71 50 -90 25 -45 192 -340 225 -400 14 -25 35 -63
48 -85 51 -89 268 -477 322 -575 l57 -104 79 164 c44 91 108 224 142 295 116
240 192 399 240 500 26 55 78 163 115 240 37 77 91 190 120 250 56 118 155
323 240 500 53 109 53 110 65 80 6 -16 65 -196 131 -400 66 -203 124 -381 129
-395 5 -14 54 -167 110 -340 55 -173 105 -324 110 -335 4 -11 15 -45 24 -75 9
-30 41 -129 70 -220 l54 -165 691 -3 c380 -1 691 1 691 4 0 4 -42 129 -94 278
-98 279 -313 901 -392 1131 -25 72 -56 159 -69 195 -13 36 -42 121 -65 190
-23 69 -46 134 -50 145 -5 11 -34 92 -64 180 -60 176 -77 225 -259 750 -69
198 -142 407 -162 465 -20 58 -59 170 -87 250 -27 80 -56 163 -63 185 l-12 40
-80 -160 c-45 -88 -229 -455 -411 -815 -181 -361 -394 -783 -472 -939 -78
-156 -145 -279 -150 -275 -4 5 -51 95 -105 199 -108 209 -205 397 -300 580
-34 66 -97 188 -140 270 -95 185 -207 401 -290 560 -34 66 -104 201 -155 300
-85 164 -139 266 -144 272 -1 2 -13 -30 -26 -70z"/>
</g>
</svg>
